<svg width="1200" height="1230" xmlns="http://www.w3.org/2000/svg">
 <metadata id="metadata127">image/svg+xml</metadata>

 <g>
  <title>background</title>
  <rect fill="none" id="canvas_background" height="402" width="582" y="-1" x="-1"/>
 </g>
 <g>
  <title>Layer 1</title>
  <g id="g3248">
   <g id="Skala">
    <path fill="none" stroke="#000000" stroke-width="3" stroke-linecap="round" id="path6" d="m164.276108,1099.48584l244.31398,0l0,-13.556885"/>
    <path fill="none" stroke="#000000" stroke-width="3" stroke-linecap="round" id="path8" d="m316.707092,1099.861816l0,12.803955"/>
    <path fill="none" stroke="#000000" stroke-width="3" stroke-linecap="round" id="path10" d="m164.258102,1085.657959l0,27.729004"/>
    <text x="315.758499" y="1134.068542" font-family="ArialMT" id="text12" font-size="18.199699px"/>
    <text x="315.758499" y="1134.068542" fill="none" stroke="#000000" stroke-width="1.3321" stroke-linecap="round" font-family="ArialMT" id="text14" font-size="18.199699px"/>
    <text x="283.384995" y="1134.068542" font-family="ArialMT" id="text16" font-size="18.199699px">1000 km</text>
    <text x="283.384995" y="1134.068542" fill="none" stroke="#000000" stroke-width="1.3321" stroke-linecap="round" font-family="ArialMT" id="text18" font-size="18.199699px">1000 km</text>
    <text x="353.188705" y="1134.068542" font-family="ArialMT" id="text20" font-size="18.199699px"/>
    <text x="353.188705" y="1134.068542" fill="none" stroke="#000000" stroke-width="1.3321" stroke-linecap="round" font-family="ArialMT" id="text22" font-size="18.199699px"/>
    <text x="393.586716" y="1078.913269" font-family="ArialMT" id="text24" font-size="18.200001px"/>
    <text x="393.586716" y="1078.913269" fill="none" stroke="#000000" stroke-linecap="round" font-family="ArialMT" id="text26" font-size="18.200001px"/>
    <text x="363.740494" y="1078.913269" font-family="ArialMT" id="text28" font-size="18.200001px">1000 mi</text>
    <text x="363.740494" y="1078.913269" fill="none" stroke="#000000" stroke-linecap="round" font-family="ArialMT" id="text30" font-size="18.200001px">1000 mi</text>
    <text x="428.488998" y="1078.913269" font-family="ArialMT" id="text32" font-size="18.200001px"/>
    <text x="428.488998" y="1078.913269" fill="none" stroke="#000000" stroke-linecap="round" font-family="ArialMT" id="text34" font-size="18.200001px"/>
    <text x="151.708694" y="1078.672058" font-family="ArialMT" id="text36" font-size="18.200001px"/>
    <text x="151.708694" y="1078.672058" fill="none" stroke="#000000" stroke-linecap="round" font-family="ArialMT" id="text38" font-size="18.200001px"/>
    <text x="149.17601" y="1078.672058" font-family="ArialMT" id="text40" font-size="18.200001px">0</text>
    <text x="149.17601" y="1078.672058" fill="none" stroke="#000000" stroke-linecap="round" font-family="ArialMT" id="text42" font-size="18.200001px">0</text>
    <text x="159.297592" y="1078.672058" font-family="ArialMT" id="text44" font-size="18.200001px"/>
    <text x="159.297592" y="1078.672058" fill="none" stroke="#000000" stroke-linecap="round" font-family="ArialMT" id="text46" font-size="18.200001px"/>
    <text x="151.384995" y="1132.650574" font-family="ArialMT" id="text48" font-size="18.200001px"/>
    <text x="151.384995" y="1132.650574" fill="none" stroke="#000000" stroke-width="1.3868" stroke-linecap="round" font-family="ArialMT" id="text50" font-size="18.200001px"/>
    <text x="148.85231" y="1132.650574" font-family="ArialMT" id="text52" font-size="18.200001px">0</text>
    <text x="148.85231" y="1132.650574" fill="none" stroke="#000000" stroke-width="1.3868" stroke-linecap="round" font-family="ArialMT" id="text54" font-size="18.200001px">0</text>
    <text x="158.974289" y="1132.650574" font-family="ArialMT" id="text56" font-size="18.200001px"/>
    <text x="158.974289" y="1132.650574" fill="none" stroke="#000000" stroke-width="1.3868" stroke-linecap="round" font-family="ArialMT" id="text58" font-size="18.200001px"/>
   </g>
   <path fill="#cccccc" stroke="#000000" stroke-linecap="round" id="Aegypten" d="m726.745422,263.844574l131.971985,-3.937988l4.251038,4.201996l8.711975,-1.100006c0.300354,-2.536499 44.287292,-2.773865 44.587646,-5.310303l-22.39563,-17.937714l-2.888,-14.258987l4.617981,0.162994l-11.232971,-10l-30.812012,-50.891998l-0.138977,-6.177002c-7.291016,-4.779999 -12.686035,-10.826004 -15.942017,-18.296005l-0.286011,-4.742996l-4.650024,-3.384003l1.21405,-7.526993l13.812988,18.459991c1.235962,1.424011 -0.153015,2.448013 0.961975,3.993011c3.609985,4.998993 9.825989,10.041 13.48999,12.968994c1.871033,-0.628998 4.065002,-0.182999 4.994019,-3.957993l3.603027,-23.974014l-16.197021,-33.000092c-10.937012,7.653107 -21.872986,10.712097 -32.810974,-0.679993l-13.366028,1.024094c-3.054016,1.313004 -6.304993,3.313004 -8.067993,0.106995l-21.565002,12.601013l-35.713013,-7.956009c-5.365967,-1.102997 -11.091003,-2.919998 -15.52002,-2.145996c-4.542969,2.772003 -7.774963,0.630005 -11.005981,-1.522003c-1.838013,3.193008 -3.774963,6.423004 -2.013,8.307999l1.444031,13.003998c-3.161011,5.095001 -6.078003,10.318008 3.911987,22.318008l7.031982,119.651001z"/>
   <g id="Aequatorialguinea">
    <path fill="#cccccc" stroke="#000000" stroke-linecap="round" d="m501.22113,617.960876l-27.135986,1.310974l-5.42804,-3.555969l8.142029,-15.627014l24.234985,-0.281006l0.187012,18.153015z" id="path64"/>
    <path fill="#cccccc" stroke="#000000" stroke-linecap="round" d="m426.329102,632.198853c0.000977,1.625 -1.315002,2.942017 -2.940002,2.942017c-1.625,0 -2.942017,-1.317017 -2.940979,-2.942017c-0.001038,-1.625 1.315979,-2.942017 2.940979,-2.942017c1.625,0 2.940979,1.317017 2.940002,2.942017z" id="path66"/>
    <path fill="#cccccc" stroke="#000000" stroke-linecap="round" d="m437.73114,608.792847c0,1.29303 -1.048035,2.341003 -2.340027,2.341003c-1.292969,0 -2.341003,-1.047974 -2.341003,-2.341003c0,-1.292969 1.048035,-2.341003 2.341003,-2.341003c1.291992,0.000977 2.340027,1.048035 2.340027,2.341003l0,0z" id="path68"/>
   </g>
   <path fill="#cccccc" stroke="#000000" stroke-linecap="round" id="Aethopien" d="m1120.008057,494.086853l-48.203003,55.005981l-18.833984,-0.338989c-2.324951,0.645996 -11.041992,6.007996 -16.047974,10.414978c-4.104004,3.615051 -10.43103,5.723022 -16.906006,8.670044c-3.840027,0.020996 -8.502014,1.414001 -11.190002,-0.484009c-6.30304,-6.109009 -13.517029,-3.117004 -20.652039,-0.893005c-2.357971,4.343018 -5.578003,7.822998 -10.940002,9.161987l-25.761963,-4.005981c-5.832031,-4.949036 -12.257996,-9.541992 -20.235046,-13.203979l-14.315979,-0.992004l0.01001,-11.63501l-11.260986,-4.121033l-8.140015,-18.588013l-11.68103,-9.343994c2.17804,-3.486969 -3.539978,-6.366974 -6.44696,-9.463989c-3.954041,0.891022 -7.90802,0.084015 -11.862,-2.041992l3.479004,-4.182007l-0.212036,-5.381989l10.263,0.186005c2.241028,-1.407013 4.720032,-1.945007 6.359985,-5.554016l-0.292969,-30.158997l4.882996,-7.681l5.13501,0.188019l2.34198,-12.869019c6.179016,-7.600983 8.366028,-16.881989 18.557983,-22.792999l2.674011,-22.309998l8.163025,-0.234985l1.132996,-2.656006l3.963013,0.069l3.394958,5.643982l4.889038,-12.969971c3.22998,2.077972 7.450012,2.15799 9.339966,6.727997l8.240051,-1.612l1.391968,-2.637024l1.478027,-0.315979l1.988953,3.503998c2.612,-1.554016 5.858032,-3.209015 10.048035,-0.496002c1.213013,0.518005 2.627014,0.789001 5.75,-1.028015c3.302002,1.78302 5.304993,5.421021 9.979004,5.243011c10.550964,9.213013 20.776978,18.79599 29.829956,29.721008c-0.815979,0.770996 -1.185974,3.687988 -1.786987,10.276001l-3.906006,7.007996c-3.146973,5.169006 0.662048,9.727997 6.656006,7.580994l5.263977,-2.02301l5.284058,2.163025c-6.379028,7.353973 8.807007,20.15799 22.494995,32.945984l49.41394,15.789001l16.272095,-0.283997l-0.003052,0z"/>
   <path fill="#cccccc" stroke="#000000" stroke-linecap="round" id="Algerien" d="m200.983093,137.558853l16.028992,-7.986008l3.309998,1.182999l5.490005,-4.769997l9.218002,0.845001l0.498993,-4.261002c19.07901,0.933006 23.040009,-4.169998 26.408997,-9.284996l15.973999,-6.582001l5.89801,0.184998l-3.088013,-4.085999l0.813019,-3.229996l-0.128998,-5.348007c6.246979,-0.817993 13.950989,0.185005 13.997986,-6.349998l25.843994,0.359001l3.587006,-7.431999c-4.953979,-1.818001 -5.839996,-8.981003 -5.177002,-16.593002c0.493011,-5.650997 0.046021,-18.508999 0.046021,-18.508999c-1.710022,-2.063 -3.839996,-4.006001 -4.333008,-6.969997c1.381989,-0.614002 7.868011,0.448997 11.806,-4.825001c2.028992,-2.719 4.622009,-8.205 8.006989,-7.134001c3.951019,1.252001 11.520996,2.042 11.984009,-0.466c0.494995,-2.683001 7.829987,-8.587 18.421997,-8.552c19.401001,0.063 44.46701,-7.318 52.65799,-4.919c8.190002,2.398999 18.858002,-3.188001 23.594025,-2.884001c4.768982,0.306001 6.207001,5.508 12.712982,1.082001c2.432007,-1.654 11.213013,5.225999 19.582001,2.789c0,0 -4.997009,2.219001 -5.278992,7.349c-0.43399,7.901001 -1.165985,32.493999 -1.165985,32.493999c-0.830994,-1.328999 -6.779022,-0.332001 -7.714996,3.681999c-1.271027,5.454002 -7.408997,4.043003 -7.896027,6.799004c-0.97998,5.545998 3.859009,10.639999 9.560028,15.614998c1.460999,1.275002 -0.538025,8.338997 0.908997,9.630997c4.414978,3.939003 12.240997,6.621002 12.240997,6.621002c1.816986,18.072998 5.035004,30.554001 5.035004,30.554001c-8.282013,0.554001 -3.856018,8.240997 1.720978,16.447006l0.348022,47.009995c0,0 -7.481018,1.516998 -6.964996,3.444992c1.159973,4.32901 1.431976,7.529007 6.89798,12.396011c3.51001,3.123001 3.575012,8.39299 3.272003,11.853989c-0.348999,3.994003 3.681,5.804001 4.734009,5.778c8.208008,-0.197998 15.145996,-4.192993 22.921997,17.24501l-98.328003,64.617996c-14.593018,6.285004 -38.628998,10.045013 -39.456024,9.681c-5.481995,-2.411011 0.872009,-8.446991 -0.96698,-12.484009c-1.841003,-4.042999 -4.061005,-7.082977 -10.309021,-6.405975c-3.323975,0.359985 -5.067993,-3.915009 -6.383972,-3.697021c-5.320007,0.881012 -6.675018,-5.164001 -7.851013,-6.238983c-4.665985,-4.269012 -9.299011,-5.51001 -8.238007,-9.390015l-143.694,-109.537003l3.45401,-29.727005l0,0.000015z"/>
   <g id="Angola">
    <path fill="#cccccc" stroke="#000000" stroke-linecap="round" d="m509.131104,927.452881c3.590027,-0.953003 7.473022,-5.715027 10.694031,-1.888977c3.198975,-3.956055 12.08197,-11.785034 26.439941,2.872986l72.149048,-0.987l7.729004,6.738037l45.477966,5.882935l28.765991,-6.476929l-19.44397,-17.353027l1.487976,-61.456055l34.695007,1.030029l-3.770996,-4.021973l4.085999,-32.499023c-0.46698,0.117004 -1.002014,-0.121033 -1.45697,0.044006c-8.363037,3.046997 -17.254028,2.343018 -26.225037,2.521973l-3.117981,6.113037l-5.687988,-4.791992l6.34198,-8.448059l-8.562012,-17.346985l-1.307983,-38.928955l-14.822021,1.051941l0.005005,-7.028992l-6.584961,-0.962952l-1.729004,3.126953l-12.104004,-0.622986l-4.598022,17.622009c-6.008972,-1.083008 -11.557983,-2.562012 -20.559021,1.987976c-7.951965,-2.557007 -15.151001,3.402039 -26.406982,-36.528992l-4.258972,-2.544983l-45.582031,-0.734009l-20.737976,7.119019c5.19397,14.938965 16.164001,23.424011 15.792969,45.518982l-3.565979,3.419983c2.94397,9.978027 5.570007,20.415039 12.124023,25.179016c0.645996,2.794006 -0.769043,4.825012 -0.952026,6.924011c-0.671997,7.677979 -4.708008,29.440979 -6.47998,25.562012c0,0 -7.309021,1.596985 -7.963989,7.481995c-0.319031,2.867004 -3.857056,3.271973 -5.172058,6.805969c-3.675964,9.879028 -7.549988,25.549011 -10.34198,39.794006c-0.323975,1.650024 -2.47699,0.926025 -2.742004,2.5c-0.766968,4.536011 0.085999,7.759033 -0.198975,12.572021c-0.085999,1.438965 -1.915039,-0.971985 -2.269043,0.80896c-0.434998,2.200012 1.337036,8.436035 0.853027,9.944031z" id="path73"/>
    <path fill="#cccccc" stroke="#000000" stroke-linecap="round" d="m514.322144,721.640869l8.046997,-4.866028c3.369995,-7.914978 6.122009,-5.618958 8.796021,-2.05896c-3.421021,3.088013 -6.973022,6.072998 -7.307007,11.560974c0.807983,7.608032 -2.723022,6.971985 -5.231018,8.277039c-1.112976,-2.065002 -2.69696,-4.037048 -2.145996,-6.434998c-0.067017,-2.268005 -0.034973,-4.55304 -2.158997,-6.478027z" id="path75"/>
   </g>
   <path fill="#cccccc" stroke="#000000" stroke-linecap="round" id="Benin" d="m359.361115,529.05188l-15.311005,2.049011l-7.90799,-61.994019c-1.011017,-4.72699 -5.70401,-6.820984 -9.287018,-9.709991l1.899017,-10.131989l9.92099,-7.809998l10.342987,0.421997l7.598999,-12.242004l17.097015,2.743988l0.106018,13.556c4.849976,5.210999 3.970001,12.205017 0.311981,14.397003c0.334015,6.527008 -0.855988,11.938995 -5.194,11.792999c-2.626984,7.059998 -4.867981,15.535004 -8.610992,18.502014l-0.966003,38.424988z"/>
   <path fill="#cccccc" stroke="#000000" stroke-linecap="round" id="Botsuana" d="m729.982117,935.021851l-10.628967,5.971008c-10.491028,0.060974 -11.139038,6.234985 -15.068054,9.554993l-2.955994,-8.310974l-39.729004,3.480957l-2.264954,61.540039l-16.272034,-0.381958l-1.096008,44.415955c4.444031,5.455078 10.449036,11.395996 13.457031,15.369995c2.930969,3.869995 1.057983,11.427979 -1.788025,18.487061c7.871033,3.330933 15.507996,3.494019 23.085999,1.523926c1.127014,-2.98999 2.671997,-5.14502 4.715027,-6.304932c3.284973,-1.887085 5.992004,-4.293091 7.000977,-8.228027l9.898987,-8.255981c6.102051,0.531982 10.795044,2.953003 15.558044,6.44397c10.089966,0.140015 16.091003,-1.696045 20.277954,-3.827026l1.957031,-9.299927l58.093994,-46.425049c-7.312988,-5.315979 -10.963013,-4.104004 -15.138977,-5.08197c-4.207031,-0.984009 -9.395996,-8.460083 -8,-21.313049c-4.028015,-0.79303 -6.606995,-3.036987 -8.820007,-5.645996c-2.528015,-4.236023 -5.830994,-3.829041 -8.769043,-5.613037c-4.552979,-6.330994 -12.927002,-14.460999 -13.570984,-19.348999c-0.312012,-2.370972 -1.559998,-2.243958 -3.335999,-4.884949c-2.050964,-3.045044 -4.750977,-10.126038 -6.606995,-13.866028z"/>
   <path fill="#cccccc" stroke="#000000" stroke-linecap="round" id="Burundi" d="m803.651123,681.399841l2.430969,-2.28302l2.946045,0.145996l1.472961,4.125l8.249023,-1.619995l0.440979,-5.156006l10.312012,-0.588989c-3.406982,5.924988 1.669983,9.156982 3.830017,12.152039c-6.906982,16.138 -12.786987,21.807983 -18.127014,22.070984c-7.076965,0.031006 -6.150024,2.622986 -6.914978,4.885986c-0.513,-7.174988 -0.140991,-13.867004 0.310974,-19.740967c0.551025,-7.184021 -1.838989,-12.473999 -4.950989,-13.991028z"/>
   <path fill="#cccccc" stroke="#000000" stroke-linecap="round" id="Burkina_Faso" d="m269.710114,474.432861c-3.183014,-0.431 -4.304993,-4.709015 -6.908997,-7.177002c-5.132996,-4.863007 -14.828003,-1.248993 -22.559006,3.520996c-9.415009,-4.704987 -10.690994,-8.941986 -12.425995,-12.848999c1.883987,-5.080994 0.600998,-11.757996 3.155991,-17.156982c2.281006,-4.823029 6.25,-9.287018 13.210999,-13.115021l8.501007,-17.822998c7.29599,-2.411987 13.921997,-3.329987 19.632996,-5.34198c5.493988,-1.936005 10.44101,-5.10202 13.451996,-9.146027c10.884003,-6.721985 24.39502,-15.341003 32.740997,-13.207977c-0.115997,2.737976 -0.127991,5.454987 1.561005,7.832977c2.830017,1.921997 2.227997,5.108002 1.649994,8.285004l16.820007,22.614014l6.406006,2.130005c0.936005,-1.068024 5.507996,-6.71402 7.764008,5.733978l3.813995,0.81601l-7.359009,12.411011l-10.425995,-0.552002l-10.035004,7.833984l-15.108002,-1.794006c-8.684998,-0.149994 -9.47998,1.540009 -13.178986,2.553009l-33.529999,-0.958008l2.821991,25.390015z"/>
   <path fill="#cccccc" stroke="#000000" stroke-linecap="round" id="Demokratische_Republik_Kongo" d="m628.006104,575.85083c-2.924011,8.718994 -6.409973,14.906006 -10.052979,24.390991c-4.778015,12.440002 -3.716003,31.616028 -6.152039,48.578979c-12.635986,5.728027 -16.635986,14.911011 -23.102966,23.106018l-5.041992,24.127014c-9.122009,8.927002 -17.609009,20.393982 -28.598999,21.853027c-0.66803,-13.458008 -12.32605,-6.990051 -13.608032,-1.69104c-5.552002,3.66803 -7.364014,-0.143982 -10.500977,-1.305969c-4.012024,2.888 -6.919006,6.326965 -6.959045,11.199951c0.565002,7.784058 -2.971985,7.364014 -5.529968,8.900024l1.495972,5.934021l20.842041,-7.131042l45.580994,0.818054l4.22998,2.472961c10.361023,38.416016 18.765991,34.627991 26.197998,36.502014c11.580017,-4.846008 14.677002,-2.151001 20.833984,-2.177979l4.476013,-17.472046l12.16803,0.686035l1.555969,-3.187988l6.757996,1.052979l0.103027,7.062012l14.669006,-1.074036l1.524963,38.683044l8.36499,17.409973l-6.381958,8.646973l5.815002,4.917053l3.107971,-6.221008l19.238037,-0.341003l6.975952,-2.338989l6.035034,-0.108032l2.185974,8.598022l11.216003,-3.705994c0.603027,2.583008 1.713013,4.472961 3.192993,5.856995c3.640015,3.401978 10.445007,8.085999 16.512024,8.179993c4.276001,0.065002 7.718018,-4.328979 11.463989,-3.541016c5.108032,7.083008 11.160034,9.135986 17.497986,9.661987c4.710999,7.307007 7.876038,16.158997 21.270996,14.782043l5.246033,3.645996l-0.372986,-18.697998c-9.30304,2.98999 -14.946045,-1.338013 -19.754028,-7.33905c0.949036,-7.379944 3.934021,-14.080994 7.332031,-20.644958c0.296997,-7.588989 -0.726013,-14.579041 -2.58905,-22.179016c-0.407959,-1.664001 1.763,-7.86499 4.53302,-11.495972l30.166992,-7.387024c-3.122986,-16.906006 -14.109009,-20.338989 -17.260986,-32.307007c-3.856995,-14.648987 -5.742004,-32.213013 -3.687988,-49.346985c-0.570984,-8.020996 -4.244019,-12.268005 -9.549011,-14.527039l9.000977,-12.895996l7.291992,-8.001953l1.131042,-28.028992l10.226013,-15.525024l16.453979,-14.809998l-9.923035,-6.453979l0.050049,-17.679016l-20.554993,-17.432007c-1.835022,0.171997 -2.684021,1.987 -3.969055,3.072998c-4.140991,1.288025 -7.953979,-0.703979 -11.911987,-1.244019c-2.130005,4.768005 -10.907959,2.265015 -11.945007,-0.455994c-0.302979,-0.792969 0.386047,-2.390991 -0.812988,-2.836975c-2.589966,-3.497009 -5.257996,-5.860046 -7.848999,-8.064026l-8.55896,0.415039l-2.787048,3.20697l-3.148987,-2.609985l-1.960999,3.063965l-4.094971,-5.354004l-18.480042,1.604004l0.007019,2.978027l-8.224976,1.513l-1.300049,-3.161011l-20.961975,7.427979c-5.869019,-4.256958 -8.025024,-1.944946 -11.463013,-2.086975l-3.690002,8.031006c-17.411011,-0.65802 -24.68396,-0.664978 -27.552979,-4.544983c-5.513,6.07196 -6.854004,-1.412048 -10.22998,-2.277039c-1.907043,-8.875977 -6.953003,-6.243958 -10.465027,-9.237976c-6.499023,4.362 -10.046997,8.724976 -13.086975,13.085999c0.039978,6.070007 -0.926025,11.135986 -2.637024,15.455994z"/>
   <path fill="#cccccc" stroke="#000000" stroke-linecap="round" id="Dschibuti" d="m1029.860107,413.430847l-9.843994,7.346008c-1.705017,4.955994 -0.768982,8.945984 -2.163025,11.303986c-5.646973,9.550995 -4.932007,10.292023 -3.178955,12.408997c2.362,2.853027 8.583984,0.819 11.806946,-1.087982l5.14209,2.203979l5.728882,-8.667999c-3.524902,-2.993988 -7.05188,-1.444977 -10.576904,-1.615997c0.960938,-4.317993 5.80896,-5.304993 9.255005,-7.492981c2.541992,-7.865997 -2.861084,-12.882019 -6.170044,-14.39801z"/>
   <path fill="#cccccc" stroke="#000000" stroke-linecap="round" id="Elfenbeinkueste" d="m184.784103,561.111877l6.397003,0.604004l50.844986,-14.390991l18.244019,2.044983l2.641998,-10.807983c-0.550995,-8.645996 -7.891006,-17.492004 2.036987,-25.830017c0.923004,-6.304993 0.412018,-13.166992 7.20401,-17.190002l-2.321014,-21.263c-2.794983,0.059998 -3.962006,-2.841003 -5.427002,-5.358002c-3.255981,-5.598999 -14.174988,-4.937988 -24.263992,1.949005c-4.804001,-3.39798 -10.401001,-5.737 -12.280991,-13.03299c-6.741013,-2.485992 -11.990005,-1.13501 -16.32901,2.559998l0.785004,-7.273987c-1.057007,-2.765015 -4.852005,-1.970001 -9.315994,-0.305023c-1.125,0.127014 -0.337006,1.894012 0.924988,4.063995c-1.636002,0.619019 -3.271988,0.709015 -4.90799,1.021027c-1.139008,1.401001 -2.781006,2.885986 -4.600998,3.266998c-4.572006,-8.012024 -7.223007,-6.503998 -12.656006,-2.100006c-1.861008,1.51001 -3.078995,5.158997 -3.839996,8.345001c-0.856003,3.589996 0.679993,7.054993 4.597,6.552979l-0.363998,4.836029c2.793991,1.25 2.191986,1.746979 -0.409012,4.484985c-1.174988,1.235992 3.294998,6.89801 2.764008,8.234009l-8.584,-1.707001c-0.229004,1.354004 -0.531006,3.300995 -0.654999,4.79599l4.039001,1.729004l-3.154999,8.398987c0.411987,0.65802 -3.815002,0.233002 -4.853012,0.375l0.063004,5.26001c4.386002,1.181 1.990005,11.455017 -2.126999,13.127014l6.037003,3.791016c1.328995,-1.041016 5.057999,-0.131042 7.479004,6.475952c0,0 6.019989,3.78302 5.888992,8.546997c-0.104004,3.779053 -2.656998,4.381042 -3.347992,7.309998l-0.509003,11.486023z"/>
   <path fill="#cccccc" stroke="#000000" stroke-linecap="round" id="Eritrea" d="m942.445129,381.549866c3.072021,2.10199 6.143982,1.835999 9.215027,6.64801l8.159973,-1.634003l1.588989,-2.55899l1.346008,-0.358002l1.807007,3.365997c4.120972,-2.184021 7.836975,-2.274017 10.453003,-0.209015c1.594971,1.257996 3.942017,-0.490997 5.653015,-1.126984c3.182007,2.578003 6.338989,5.403992 9.787964,5.304993c11.202026,9.256989 20.859985,19.28598 29.854004,29.646973l9.695984,-6.758972c-1.395996,-3.702026 -3.249023,-7.09201 -9.822998,-7.252014c-0.325989,-2.979004 -1.585999,-5.625 -5.765991,-7.227997c-0.888,-3.57901 -3.964966,-3.509003 -6.388977,-4.527008c-2.044006,-5.687988 -7.026001,-8.803986 -11.11499,-12.701996c-4.610046,1.083008 -6.739014,-1.970978 -8.921021,-4.934998l-3.503967,-0.68399l-2.509033,1.540985c-2.622009,-2.155975 -3.336975,-5.129974 -4.067993,-8.096985l-3.755981,-1.002014l0.953979,5.206024c-2.271973,1.390991 -3.517029,-2.362 -4.702026,-6.407013l-7.648987,-11.106018c-4.987976,-23.246002 -9.338989,-26.094971 -13.799011,-32.442993c-1.22998,2.891998 -1.442993,6.407013 -3.463989,7.984009l-11.255005,5.858002c-1.817993,3.15799 -4.632996,4.09198 -7.625,4.061005c-4.216003,20.117981 -6.442993,33.102997 -6.242004,49.435974l8.676025,-0.011993l0.841003,-2.807007l4.007019,0.225006l3.302002,5.228027l5.245972,-12.657013z"/>
   <path fill="#cccccc" stroke="#000000" stroke-linecap="round" id="Gabun" d="m497.67511,699.925842l-30.106995,-31.151978l-7.179016,-18.340027l6.617004,-6.35199l1.852997,-10.322021l8.469025,1.853027c0.487,-0.507019 1.247986,-0.876038 0.793976,-1.853027l-7.348999,-3.766968l2.320007,-10.525024l28.192993,-1.445984l0.126007,-18.139038l34.935974,0l-2.707947,3.814026l-0.313049,11.833008c3.153015,1.203003 5.257996,-1.398987 7.301025,-5.138977c5.369995,-0.83606 15.228027,4.014954 12.549011,13.277954c-4.473999,5.031006 -6.51001,9.717041 -4.913025,13.996033c1.176025,3.151001 2.590027,6.211975 3.496033,10.882996l-2.708008,24.645996l-5.619019,4.062988c-2.525024,-4.171997 -7.184998,-5.676025 -13.700989,-4.856995c-2.004028,-2.51001 -3.971008,-5.716003 -7.77002,-0.651978l-14.571991,8.966003l1.261993,12.04895l-10.97699,7.163025z"/>
   <path fill="#cccccc" stroke="#000000" stroke-linecap="round" id="Gambia" d="m41.500099,395.955872l18.351002,0c3.958,-5.286987 9.787998,-3.556 16.429996,1.21701l10.595001,0.784973l2.335999,3.003021l-7.673996,2.669006c-5.251999,-1.122009 -9.991005,-3.143005 -14.347,-5.835022c-3.075005,1.822998 -6.592003,2.912018 -11.010002,2.498016l-2.001999,3.337006l-15.945,0.666992l3.265999,-8.341003z"/>
   <path fill="#cccccc" stroke="#000000" stroke-linecap="round" id="Ghana" d="m331.914093,534.411865c-1.60199,2.134033 -1.800995,6.604004 -6.231995,4.02002c-22.003998,2.671997 -30.687012,12.003967 -46.029999,18.005981l-19.404999,-7.101013l2.641998,-10.80896c-0.550995,-8.645996 -7.891006,-17.491028 2.036987,-25.829041c0.923004,-6.305969 0.412018,-13.167969 7.20401,-17.190002l-5.15802,-46.53299l33.509003,1.036011c4.459015,-2.360016 9.205017,-2.712006 14.003998,-2.693024c-2.630981,5.257019 -1.228973,10.261017 5.146027,14.95401c5.149994,21.002014 4.509979,41.177002 6.123993,61.673981l6.158997,10.465027z"/>
   <path fill="#cccccc" stroke="#000000" stroke-linecap="round" id="Guinea" d="m63.649101,444.317871c-0.577,1.798004 -0.43,2.688995 1.906998,2.692993c0.944,1.132019 4.272003,-6.859009 3.760002,1.205017l2.973999,0.317993c-1.008003,4.479004 2.042999,9.97998 4.953003,10.972992c3.745995,1.278015 5.816994,5.614014 7.875999,7.528015l5.083,9.353973c3.5,2.38501 8.322998,0.651001 15.853996,-9.504974c-0.82,-3.38501 3.856003,-5.188019 17.835999,-4.312012c11.450996,8.251007 14.883995,17.877014 10.614006,28.822998c5.121994,-1.237 7.987,-4.729004 16.526001,-2.548004c4.256989,5.364014 6.891998,11.283997 3.35199,19.321014c4.715012,1.760986 6.416,6.938019 12.999008,-1.782013c-0.449005,-1.998993 1.177002,-2.720001 3.246994,-1.184998c1.253006,0.929993 3.347,-0.480988 5.322998,0.009003l3.478012,-8.959991l-4.263,-1.721008l0.812988,-4.708008l8.714005,1.772003c-0.666992,-3.212006 -5.009003,-7.390991 -1.791992,-9.580994c1.440994,-1.483002 0.774994,-2.644012 -0.688004,-3.681l0.181,-4.105988c-8.449997,-1.011017 -3.626999,-10.360016 -0.710999,-15.098999l-5.179001,-4.707001l-0.595001,-10.358002l-4.270004,3.14798l-1.597992,-2.385986l5.702988,-5.21701l-7.699997,-5.850983c1.272003,-4.097015 -0.444,-9.01001 -1.839996,-14.121002l-5.421997,-1.179016c0.084,2.334015 -0.725006,4.101013 -3.106003,4.865997c-2.033005,-0.610992 -3.279007,0.688995 -3.740005,3.895996l-9.608994,-3.97699l-7.628998,5.531006c0.966995,-2.479004 -1.51001,-3.950012 -3.068008,-5.798004l-4.207001,2.825989c-3.286995,1.106018 -3.698997,-0.66098 -3.659996,-2.880981c0.676003,-0.721008 1.521004,-1.27301 1.778999,-2.411011c-11.866997,-1.842987 -24.296997,-1.102997 -35.145996,-7.634003l-3.402,-0.018982l-1.478004,18.408997l-9.264,0.246002c-9.052994,3.293976 -13.509995,11.724976 -14.604996,12.80899z"/>
   <path fill="#cccccc" stroke="#000000" stroke-linecap="round" id="Guinea-Bissau" d="m37.4161,417.461853l1.124001,3.087006c2.326,1.592987 6.704998,-1.555023 6.442001,6.009979c2.115997,1.105011 4.732998,-1.126984 6.250999,3.962006c2.596001,1.312012 9.170998,-10.903992 6.790001,7.326996l5.836998,6.39502c3.460999,-5.395996 8.664001,-10.805023 14.050003,-12.736023l9.529999,-0.231995l1.600998,-18.358978l-24.592003,-0.084015c-4.997997,2.429993 -10.133995,3.761017 -15.578999,2.610016c-3.469997,1.240997 -7.085999,1.899994 -11.453999,2.019989z"/>
   <path fill="#cccccc" stroke="#000000" stroke-linecap="round" id="Kamerun" d="m582.953125,608.788879c-4.47699,-1.969971 -9.83197,-6.432983 -12.992004,-4.671997l-11.287964,-4.026978l-22.58905,-0.207031l-35.464996,0l-24.153992,0.265015l2.451019,-18.526001l-6.35202,-8.205017l2.381989,-2.911011l-1.587982,-2.381958l-4.234009,1.322998c-5.230988,-0.649048 -7.104004,-4.35199 -8.330994,-8.642029c-2.825012,-1.062012 -6.777008,-0.679993 -6.755005,-5.385986c5.94101,-10.283997 7.231995,-24.325012 18.82901,-30.041992l0.403992,-4.53302l16.558014,-0.783997c6.18399,3.971008 4.208984,8.53302 14.712006,7.200989c7.270996,-13.125 12.544983,-37.237 22.015991,-38.271973c5.734009,-14.115997 7.435974,-34.146027 17.203003,-42.347015c4.812988,-1.720001 8.919006,-3.761993 10.700012,-6.859009c1.039001,-1.80899 1.286987,-7.656982 0.420959,-10.330994c-0.622009,-1.923004 -1.81897,-0.424988 -3.710999,-2.923981l-2.84198,-10.840027l2.301025,-1.863983l8.745972,7.410004c1.242004,6.065002 4.265015,11.686981 3.677979,18.208984c-0.633972,9.487 -4.549988,10.843994 4.910034,21.667999c1.610962,2.684998 1.977966,5.524017 1.630981,8.45401l-17.630005,-1.75c-1.966003,4.812012 -6.323975,15.73999 11.046997,19.596985l8.192993,24.614014l-15.270996,25.395996l2.129028,18.538025c6.44397,11.880005 13.909973,24.252991 24.338013,33.86499l0.552979,18.963989z"/>
   <path fill="#cccccc" stroke="#000000" stroke-linecap="round" id="Kenia" d="m1015.576111,664.11084c-2.197021,3.432007 -4.604004,6.603027 -9.434998,6.744019c-1.799011,4.764954 -4.121033,9.11499 -10.103027,10.576965c-6.586975,11.89801 -11.595947,25.570007 -19.823975,35.622009l-23.012024,-15.419983l-3.61499,-13.408997l-70.106995,-44.023987l23.074036,-35.278015l0.491943,-19.765991l-7.925964,-6.53302c-0.984009,-7.629028 -2.768982,-14.52301 -9.044983,-17.299988l8.159973,-7.132996l22.812012,-1.031006l14.192017,1.214966c4.86499,2.514038 7.44696,2.602051 20.31897,13.333008l25.84198,3.884033c4.124023,-1.420044 7.955017,-3.528015 10.82605,-9.270996c6.238953,-0.901001 12.856995,-6.300049 20.954956,1.399963c2.651001,0.94104 6.89502,0.541992 11.098999,-0.067993c-4.820007,7.703979 -9.888,13.916992 -14.920959,20.338013l0.427002,64.114014l9.789978,12.005981z"/>
   <path fill="#cccccc" stroke="#000000" stroke-linecap="round" id="Libyen" d="m510.428101,78.567863c0,0 2.497986,9.673996 -4.972015,14.978996c-3.757996,2.668999 -16.043976,11.679001 -16.043976,11.679001c1.041992,5.499001 2.328003,19.253998 -9.604004,21.127998c-8.201019,1.287003 -3.903015,7.917 1.580994,16.909004l0.348999,46.824005c0,0 -7.296997,1.425003 -6.779999,3.354004c1.160004,4.328995 1.247009,7.436996 6.713013,12.302994c3.509979,3.123001 3.574982,8.763 3.272003,12.223999c-0.34903,3.994003 4.143982,5.712006 5.196991,5.687012c8.208008,-0.199005 14.684998,-4.102005 22.459991,17.33699l38.565979,1.188004c4.494019,0.951004 9.253052,7.835007 9.253052,7.835007l22.086975,-6.275009l130.044983,64.299988l-0.234009,-10.444c14.377014,1.171021 16.028015,-0.483978 16.028015,-0.483978l-8.886963,-151.927002c-5.223022,-7.167007 -10.371033,-14.193008 -4.092041,-22.142006c0,0 0.041992,-8.431 -1.529968,-13.212997c-1.636047,-4.978004 2.85199,-8.362 2.85199,-8.362c-0.070007,-6.441002 -12.434998,-5.952003 -18.940002,-6.286003c-8.536987,-0.437996 -14.27301,-1.608002 -12.786987,-8.002998c0,0 -22.31604,-8.013 -30.953003,-2.730003c-4.588989,2.806999 -14.265015,7.291 -16.026001,13.041c-1.184998,3.865005 -0.124023,6.486 2.179993,10.412003c4.033997,6.873001 -9.587036,30.470993 -25.156982,11.585999c0,0 -20.452026,-5.629997 -32.004028,-8.154999c-11.305969,-2.471001 -19.106995,-12.385002 -14.414978,-18.386002c0.458984,-0.585999 -30.684998,-9.596001 -30.684998,-9.596001c-14.384033,2.223999 -24.915039,-1.981995 -27.473022,-4.782997l0,-0.000008z"/>
   <path fill="#cccccc" stroke="#000000" stroke-linecap="round" id="Liberia" d="m184.699097,561.06488l-14.324997,-5.039978l-50.466003,-41.342041l15.973999,-13.365967l-0.279999,-4.779022l7.828003,-7.562988c2.328995,-1.574005 5.160004,-0.476013 7.839996,-0.183014c6.723007,9.792999 4.921005,14.39801 3.085999,19.367004c3.814011,0.970001 6.695007,7.317993 13.007004,-1.747009c-0.175995,-2.520996 1.363998,-2.543976 3.964005,-1.026978l0,4.809998c2.054993,0.863007 3.55899,4.950012 1.565994,8.687988c-1.057999,1.981995 -1.78299,4.015991 -4.052994,4.423035l6.593002,4.039978c1.871994,-0.317993 3.487991,-1.708984 7.429001,6.611023c0.847,1.165955 10.695999,5.296997 2.522995,15.100952l-0.686005,12.007019z"/>
   <path fill="#cccccc" stroke="#000000" stroke-linecap="round" id="Madagaskar" d="m1069.993042,1078.480957l47.991943,-102.139038c3.670044,-11.525024 5.846069,-23.049988 11.263062,-34.575012c3.67395,-4.857971 8.333984,-9.36499 5.401001,-16.583008l1.042969,-9.906982c0.537964,-2.994019 2.187988,-2.932007 4.692017,-0.520996l1.469971,5.982971c1.784058,-0.565979 3.534058,-1.17395 3.395996,-4.142944l-4.86499,-52.939026l-9.174927,-9.944031l-5.304077,4.393005l-1.380005,13.58905l-3.064941,2.695984c-1.609985,-0.48999 -3.966064,-2.91803 -3.270996,2.585999l-4.551025,4.992981c-5.176025,-9.601013 -5.94104,-1.083008 -4.540039,3.065002c-0.136963,1.812012 0.37207,4.914001 -2.084961,2.085999l-3.708008,5.983032l5.270996,3.922974l-3.12793,0l-6.778076,4.908997l1.042969,-5.950989l-6.778931,6.778015l1.563965,8.342957l-4.570923,0.184021l0.895996,-3.739014c-4.223022,-2.776001 -7.658081,3.104004 -11.445068,5.119019l4.171997,6.778015l-5.214966,0.520996l-2.08606,-6.257019l-8.404907,1.380005c0.262939,2.955994 -3.13501,3.820007 -6.194092,4.877014l-0.520996,-4.171021l-4.692017,4.692017l-8.189941,0.399963l-1.595947,7.05304l-11.070068,16.010986c8.457031,7.434021 5.030029,24.203979 7.300049,36.5c-3.114014,9.919006 -9.160034,17.491028 -14.600098,25.550049c-6.325928,4.177002 -9.181946,8.354004 -10.143921,12.531006c-0.923035,4.007996 -2.866028,11.887024 -1.692017,15.894958c1.369019,4.677002 3.955994,3.08606 4.072021,7.763062l1.539001,7.671021c-7.738037,29.793945 11.518982,29.3479 15.66803,36.622925c1.886963,-0.858032 4.284912,0.602051 6.12793,-0.392944c4.093018,-2.208008 9.32605,-7.661987 14.795044,-5.849976c4.573975,1.516968 8.005981,-0.218018 11.344971,-1.763062z"/>
   <path fill="#cccccc" stroke="#000000" stroke-linecap="round" id="Mali" d="m248.866104,206.170853l-25.483002,0.686005l1.203995,147.05098l6.721008,2.374023l-4.710999,14.376984l-75.104004,-4.248993l-8.643997,6.05899l-4.722992,-1.743988l-3.271011,-9.709015l-4.293991,-1.147003c-8.457001,18.489014 -9.755005,16.338013 -12.896004,19.501007c0.513,1.891022 -0.720001,3.695007 -0.112,5.427002c1.903,5.419006 3.097,10.916016 0.232002,13.26001c3.912003,3.483002 8.959999,6.255981 10.410995,11.276001c0.279007,6.402985 -0.069992,11.34198 -1.792999,13.075989c-1.706993,1.709991 0.32,5.696991 3.869003,2.710999l3.451004,-2.096985c1.134003,1.807007 3.636002,2.794006 3.270996,5.501984l7.604996,-5.199982l9.287003,3.858002c0.943008,-1.423004 -0.240005,-3.556 3.371994,-4.08902c1.897003,0.052002 3.231003,-1.303986 3.791,-4.595978l5.098007,1.237c1.371994,4.802002 3.044006,9.646973 2.162994,14.126984l7.52301,5.681l-5.746002,5.26001l1.591003,2.402008l4.190994,-2.794006l0.621994,10.062988l5.294006,4.864014c2.171005,-2.154022 5.636002,-4.869995 8.257004,-3.509003c2.472,1.283997 3.623001,6.309998 5.953995,4.73999c2.438004,-1.640991 2.895996,-3.175995 6.673004,-3.17099c2.845993,0.003998 -2.439011,-4.915009 1.104004,-4.813019c1.645996,0.048004 4.217987,-1.890991 7.062988,-1.142975c2.728012,0.71698 -0.664001,10.875977 1.335007,8.694977c4.955994,-5.406982 14.830994,-3.312988 15.785004,-2.104004c2.764999,-9.898987 -2.639008,-19.028992 16.327988,-30.457977l8.371002,-17.632019c11.159012,-4.681976 23.137009,-2.550995 33.397018,-14.72699c12.898987,-8.617004 25.789978,-15.097015 32.755981,-13.165009l13.022003,0.014008l7.317993,-6.244995l35.029022,0.437988c0.888,-1.720001 1.375977,-2.983978 6.214996,-5.363007c0.037994,-4.228973 3.830994,-4.461975 6.46698,-5.793976l1.375,-51.910004l-13.149994,1.895996c-5.192993,-3.376007 -0.824982,-4.451996 -0.777008,-11.960999c-2.960999,-6.666992 -6.725983,-7.670013 -10.423981,-7.013c-3.248016,0.578003 -4.710022,-4.028015 -6.414001,-3.681c-2.934998,0.597992 -6.149017,-2.218994 -8.096008,-6.363007c-0.661011,-1.408997 -2.479004,-2.050995 -3.708008,-2.895996c-2.731995,-1.876007 -5.223999,-3.317993 -4.516998,-6.243988c0.003998,0.000977 -62.546997,-47.775024 -92.281998,-70.758026l0,0.000015z"/>
   <path fill="#cccccc" stroke="#000000" stroke-linecap="round" id="Malawi" d="m882.769104,801.721863l9.958984,32.830017l-2.938965,29.146973c5.909973,5.324036 11.789978,9.64502 20.083984,23.483032c1.041016,1.737 2.130981,6.078979 1.763977,9.560974l-3.609009,15.408997l-9.015991,3.926025l0.699036,13.47998l-4.787048,0.072998c2.466003,-6.328979 0.105042,-5.146973 -0.957947,-5.531006c-6.536011,-4.127991 -8.985046,-10.203979 -10.188049,-15.653015c5.347046,-8.22998 5.030029,-14.843994 4.420044,-21.205994l-8.847046,-1.635986c-6.829956,1.669006 -8.157959,-0.836975 -8.816956,-3.11499c-3.705994,-8.68103 -5.408997,-5.335999 -6.769043,-5.923035l-5.276001,-7.261963l9.254028,-17.156006l7.218994,-0.811035l-4.913025,-6.399963l4.302002,-22.312012l4.096008,-3.020996l-11.829956,-23.379028c3.438965,3.017029 7.241943,4.044006 16.151978,5.496033z"/>
   <path fill="#cccccc" stroke="#000000" stroke-linecap="round" id="Marokko" d="m198.933105,157.450867l2.576004,-19.744003l15.475006,-7.987l3.493988,0.999008l5.491013,-4.493004l9.125,0.660004l0.498993,-4.353004c19.078995,0.931999 22.946991,-4.169998 26.316986,-9.285995l15.97403,-6.488998l5.98999,0l-2.994995,-3.993004l0.997986,-3.693001l-0.498993,-4.792999c6.247009,-0.817001 13.951996,0.184998 13.997986,-6.349998l25.937012,0.359001l3.493988,-7.986c-4.953979,-1.818001 -5.839996,-8.981003 -5.177002,-16.593002c0.493011,-5.651001 0.046021,-18.508999 0.046021,-18.508999c-1.710022,-2.063 -3.839996,-4.006001 -4.332001,-6.970001c-4.158997,-0.766998 -9.265015,-0.859001 -11.003998,-3.354c-6.037994,-1.036999 -12.02002,-1.588001 -17.419006,-1.044998c-9.88501,0.993999 -13.953003,-2.567001 -18.022003,-11.934002c-9.519989,-0.621 -19.612991,19.835999 -26.955994,29.950001c-17.757004,4.938 -30.60701,12.943001 -39.436005,23.461998c1.179993,4.276001 -0.893005,5.923004 -5.201996,8.746002c-2.785004,1.824997 -12.583008,17.464996 -9.27301,26.195999c0.041,6.821999 -5.276001,18.192001 -20.556992,25.757996c0,0 -7.125,6.659012 -18.393997,10.335999c-4.754013,1.55101 -15.776001,2.787003 -19.111008,5.862l68.962997,5.244003z"/>
   <path fill="#cccccc" stroke="#000000" stroke-linecap="round" id="Mauretanien" d="m116.502098,262.640869c2.054001,-14.697006 -7.082001,-35.352005 21.465004,-35.940994l5.990005,-44.427002l50.915985,4.492004l2.756012,-19.965012l51.315002,39.404007l-25.560013,0.621002l1.296005,147.156998l6.468994,2.306l-4.360001,14.294006l-75.332993,-4.149017l-8.587006,6.072021l-4.634995,-1.521027l-3.274994,-9.977997l-4.555008,-1.126984c0,0 -8.312996,20.509003 -13.604996,18.434998c0,0 -2.354004,-2.554016 -5.016006,-5.306c-2.345993,-2.423004 -4.901993,-4.824005 -6.714996,-8.243011c-2.521004,-4.755005 -4.265999,-12.388977 -7.738998,-11.842987c-7.393005,1.16098 -13.026001,-8.643005 -13.026001,-8.643005c0,0 -8.612999,-2.390015 -14.787003,-0.674988c-7.98,2.216003 -16.993999,-0.084015 -18.602997,0.959991l7.324997,-20.350006l0.747002,-23.721008l-4.460999,-7.126007c2.384998,-4.21698 9.671997,-8.10498 4.909,-20.72998c-0.545002,-1.444 -3.139,-0.666016 -3.139,-0.666016l-3.076,-9.281006l3.779999,-3.789978l59.503998,3.740997z"/>
   <path fill="#cccccc" stroke="#000000" stroke-linecap="round" id="Mosambik" d="m813.268127,893.003845l3.531982,9.23999l-0.270996,4.619995l12.230042,0.919006l28.651978,11.150024c2.934021,16.013 1.054993,29.401001 -3.596985,41.276978c-0.126038,2.325012 -0.901001,4.546997 -0.619995,6.677002c0.528992,3.994019 2.497986,9.5 0.263,14.083008c-5.755005,11.799011 -11.131042,23.610046 -12.518005,24.378052c-4.752014,2.630005 -10.65802,10.31897 -10.822021,16.479004l2.859985,70.740967l10.833008,0.697998l2.885986,-10.017944l-4.348999,1.630981c0.665039,-3.963013 -0.248962,-7.926025 3.914001,-11.889038l34.763,-13.73999c4.304993,-3.160034 6.978027,-7.949951 9.972046,-12.420044l-4.059021,-1.401978l7.197998,-27.167969l-3.697998,-1.255981l-2.991028,-22.865051c-9.847961,-6.039001 -4.149963,-15.426025 -0.177002,-17.621033l21.013,-17.855957l1.733032,3.55896l7.794006,-8.609985l-1.718994,-2.653992l5.065979,-0.927979l1.505005,-4.360046l25.749023,-12.670959l6.430969,0.065979c4.875977,-3.692993 8.791992,-7.659973 15.901001,-10.716003l-0.455017,-3.815979l8.579041,-6.638c2.05896,-2.113037 3.826965,-5.242004 6.520996,-5.132019l0.375977,-4.254028l-1.632019,-1.80896l4.694031,-7.039001l1.187988,-4.697998l-0.748962,-3.070984l-2.875,-4.371033l0.994995,-17.213989c-2.193054,-2.130981 -0.982056,-3.580994 0.190979,-5.038025l-0.567017,-19.003967l6.902039,-11.627991c0.177979,-3.186035 0.435974,-6.371033 -0.727051,-9.557007c-10.59198,6.302979 -28.313965,17.276001 -37.270996,11.646973c-3.92395,0.479004 -8.328003,0.471985 -12.125,5.408997c-3.223999,-0.300964 -6.135986,-0.912964 -9.992004,-0.583008l-12.677002,2.296021c-2.300964,-2.75 -4.612,-5.479004 -9.947998,-2.497009l-18.493958,-0.602966l-2.889038,28.911987c9.122009,7.341003 17.152039,16.783997 21.162048,26.459961c2.440979,5.892029 -1.979004,14.38501 -2.833008,21.907043l-9.176025,3.969971l0.479004,12.881042l-4.52002,0.684998c1.100037,-2.690002 2.31604,-5.436035 -1.627991,-5.772034c-4.992004,-4.231995 -8.817017,-9.002991 -9.344971,-15.296021c3.82196,-6.219971 5.360962,-13.252991 4.348999,-21.198975l-8.897034,-1.630005c-3.463989,0.840027 -7.47998,0.768982 -8.38501,-1.98999c-2.401001,-7.333008 -4.727966,-7.720032 -7.448975,-6.979004l-50.276001,16.307007z"/>
   <path fill="#cccccc" stroke="#000000" stroke-linecap="round" id="Namibia" d="m509.189087,927.450867c0.710999,9.319031 1.580994,18.582031 10.125977,25.158997l35.296021,62.855042l0.89801,28.845032l6.297974,13.349976c0.354004,5.197998 -1.562988,10.395996 1.631042,15.594971l4.38501,24.552002l19.167969,21.344971c11.90802,-12.78894 16.241028,-2.459961 19.224976,5.732056c7.288025,-0.689941 14.57605,-1.362061 21.864014,-0.097046c3.414001,-3.084961 6.903992,-6.140015 12.280029,-8.438965l2.803955,-109.555969l16.209045,0.524963l2.328003,-61.692017l39.575989,-3.492004l3.041992,8.27301c2.848999,-3.127991 6.745972,-8.887024 12.570007,-9.152039c5.260986,-0.238953 7.833008,-3.648987 13.013,-6.404968l-3.79303,-5.518982l-25.481995,4.242004l-28.450012,6.620972l-46.046997,-6.145996l-7.709961,-6.483032l-72.52002,0.83905c-3.463013,-4.587036 -16.583984,-15.031006 -26.067993,-2.716003c-3.208008,-3.830994 -7.078979,0.96698 -10.643005,1.763977z"/>
   <path fill="#cccccc" stroke="#000000" stroke-linecap="round" id="Niger" d="m388.208099,313.340851l-1.43399,51.949005c-2.296997,1.333984 -5.490021,-0.026001 -6.364014,5.576996c-2.553986,1.480988 -5.700989,2.519012 -6.266998,5.490997l-35.108002,-0.338989l-7.134003,5.993988l-13.281982,0.071991c-0.384003,2.860016 -0.315002,6.438019 1.944977,8.208008c2.006012,1.570007 1.710999,4.877014 1.202026,7.790009l16.796997,22.410004l6.093994,2.276978c3.377991,-2.963989 6.455994,-3.833984 7.987,6.129028l20.803009,2.951996c1.450989,-3.325012 1.10199,-7.938019 4.871002,-9.606018c5.658997,-3.199982 4.733978,-8.794983 6.752991,-13.319c4.619995,-2.203003 1.665985,-5.335999 26.078979,-5.108002c6.313019,3.969025 12.406006,5.296997 19.055023,13.277008l4.895996,0.200012c0.139984,-1.674011 5.078003,-5.114014 8.096985,-5.688019c3.270996,-1.778992 9.085999,1.317017 16.835999,8.123016l13.807007,1.235992l13.259003,-9.509003l23.179993,-0.595001c3.496033,1.365997 6.085999,4.492004 11.244995,3.199005c3.705994,-4.171997 10.795044,-8.153992 18.937988,-11.588013c-1.263977,-3.690002 -2.685974,-7.292999 -1.506958,-12.029999c1.985962,-1.669983 4.427979,-1.93399 4.667969,-8.145996l28.005005,-31.076996l5.194031,-49.556l3.954956,-9.964996c-8.005981,-3.278015 -13.488953,-6.38501 -15.245972,-17.437012c-0.957031,-6.019989 0.40802,-13.789978 -0.187012,-25.029984l-4.986023,0.854996c-2.737,-3.222 -5.387939,-6.675003 -8.888977,-7.860001l-39.265991,-1.430008l-99.483002,65.587006l-24.513,6.957001z"/>
   <path fill="#cccccc" stroke="#000000" stroke-linecap="round" id="Nigeria" d="m454.004089,555.605835l-3.364014,-0.156982l-1.103973,5.888977c-5.766998,0.140015 -11.53302,-0.469971 -17.300018,-2.575989c-13.773987,8.575012 -24.684998,7.172974 -30.313995,-12.617981c-4.279999,-11.047058 -11.207001,-14.633057 -18.542999,-17.067017l-23.967987,0.138l1.047974,-38.254028c3.803009,-4.839996 6.170013,-11.595978 8.306,-18.658997c6.409027,-1.576996 5.041016,-7.211975 5.334015,-11.97998c6.406006,-4.243011 2.207001,-10.899994 -0.431,-15.360016l0.414001,-12.444c0.544983,-3.527985 -0.256989,-7.345001 4.803986,-10.584991c1.970001,-2.421997 3.939026,-1.242004 5.910004,-13.085999c3.511993,-2.699005 7.221008,-5.355011 26.13501,-4.753998c6.610992,3.457001 15.027985,6.263 19.617004,13.385986l4.256989,-0.203979c2.747009,-1.934998 3.596008,-5.347015 8.589996,-5.53302c2.848022,-0.061005 3.016022,-2.799988 16.529022,7.806l14.087982,1.31601l13.084015,-9.431l23.453003,-0.458008c3.421967,1.425995 6.225983,4.552002 10.66098,3.190002c5.862,-5.837006 12.973999,-8.85498 19.660034,-11.671997c2.671997,4.283997 6.391968,8.471008 9.72699,11.143005l-2.226013,1.777985l2.81897,11.346008c1.311035,0.990997 3.695007,1.338013 3.756042,3.080017c2.518005,11.127991 -3.718994,14.570984 -11.096008,17.027985c-9.393982,7.309998 -11.754028,27.367004 -17.151001,41.920013c-10.494019,3.099976 -13.989014,22.505981 -22.014008,38.463013c-7.740997,1.510986 -9.700012,-2.257996 -14.558014,-7.5l-16.866974,1.092957l-0.44101,4.511047c-10.770996,5.625 -13.25,18.378967 -18.815002,30.250977z"/>
   <path fill="#cccccc" stroke="#000000" stroke-linecap="round" id="Republik_Kongo" d="m514.381104,721.621887l-16.807007,-21.695984l11.248016,-7.145996l-1.322998,-12.174988l13.76297,-8.337036c2.350037,-1.846985 4.112,-6.328003 8.337036,0.265015c7.310974,-0.866028 11.570007,1.011963 13.895996,4.632019l5.82196,-3.970032l2.382019,-24.21698c-0.111023,-8.343018 -9.447998,-13.791992 1.721008,-25.673035c1.877991,-7.809998 -5.108032,-13.156982 -12.835999,-12.836975c-1.890991,2.417969 -2.60199,6.309998 -7.259033,5.268982l0.245056,-11.619995l2.777954,-4.234009l22.497009,0.265015l10.867981,3.864014c4.055054,-2.072021 9.484009,4.083008 13.258057,4.714966l-0.571045,-18.636963c8.525024,-10.861023 14.807007,-14.104004 21.835022,-15.747009l10.718994,4.895996l13.232971,-3.705017c-3.248962,8.694031 -6.791992,15.830994 -10.082947,24.362c-5.642029,14.619995 -3.757019,32.442017 -6.32605,48.817017c-12.218994,5.356995 -16.648987,14.763977 -23.024963,23.15802l-5.270996,24.255981c-11.502991,12.323975 -21.653992,22.202026 -28.210022,21.664001c-0.044006,-6.927979 -7.562988,-13.072021 -13.700989,-1.682007c-4.280029,2.833984 -7.359985,1.362976 -10.64801,-1.758972c-4.757019,-6.283997 -6.322021,-0.959045 -8.468994,2.248962l-8.072998,5.02301z"/>
   <path fill="#cccccc" stroke="#000000" stroke-linecap="round" id="Ruanda" d="m827.219116,653.853882l-7.36499,5.891968l-2.504028,0l-1.472961,-2.061951c-6.532043,6.518005 -11.413025,13.859985 -16.424988,21.138c1.806946,0.430969 3.250977,1.312988 4.270996,2.724976l2.430969,-2.28302l2.799011,0.222046l1.398987,3.755981l8.470032,-1.694031l0.367981,-5.08197l10.53302,-0.588989c1.544983,-2.111023 2.918945,-4.223022 5.229004,-6.333984l-7.733032,-15.689026z"/>
   <path fill="#cccccc" stroke="#000000" stroke-linecap="round" id="Sambia" d="m830.043091,774.904846l-30.442017,7.507019c-1.979004,3.618958 -3.381958,5.708008 -4.149963,9.80896c-0.197998,1.063049 0.717957,3.249023 1.040955,6.238037c0.640015,5.916992 2.644043,16.291992 0.830017,19.093018c-4.250977,6.561951 -7.125,18.678955 -6.882996,19.024963c2.427002,3.47699 7.353027,7.026001 10.257019,7.79303c4.003967,1.05896 8.500977,0.55896 9.474976,-0.945007l0.479004,19.216003c-1.560974,-1.288025 -3.799988,-2.190002 -4.904968,-3.592041c-6.389038,-0.544006 -12.151001,2.875 -21.546021,-14.895996c-6.174011,-0.529968 -12.276001,-2.330994 -17.551025,-9.674011c-2.557983,-0.669983 -6.825989,2.830017 -10.674988,3.692017c-11.008972,-1.054016 -14.172974,-6.27301 -16.981995,-7.878967c-1.908997,-1.768005 -3.116028,-3.827026 -3.487976,-6.235046l-11.329041,3.758057l-2.033997,-8.764038l-4.687012,0.153015l-4.028992,32.822998l3.707031,3.737976l-34.557983,-0.893982l-1.665039,61.512024l19.249023,17.013l26.086975,-4.093994l3.817017,5.732971l1.653015,3.862l20.414978,0.216003l2.786011,2.447998l3.812988,-1.004028c11.007019,-14.393982 21.039978,-18.072998 31.172974,-22.859985l0.416016,-9.559998c7.994995,-4.950012 16.618042,-7.731995 26.601013,-5.81897l-3.73999,-9.466003l50.708008,-15.888l-5.403015,-7.897034l9.143982,-17.040955l7.06604,-0.832031l-4.572021,-6.234009l4.156006,-22.44397l4.156006,-2.908997l-8.312988,-16.210022l-3.786011,-7.507019l-19.442017,-6.52301c-6.612,-9.397949 -8.161011,-7.629944 -10.221008,-7.080994l-6.627991,-7.380981z"/>
   <path fill="#cccccc" stroke="#000000" stroke-linecap="round" id="Senegal" d="m51.1511,344.044861c-2.990002,5.139984 -5.021999,7.821991 -5.108002,11.994995c-0.197998,9.537018 -9.716999,12.576019 -14.479998,19.51001c4.433001,6.460999 9.257998,12.807983 10.009001,20.35199l18.350998,0c3.959,-5.28598 9.788998,-3.556 16.430004,1.21701l10.595993,0.785004l2.335007,3.002991l-7.674004,2.669006c-5.251999,-1.122009 -9.990997,-3.143005 -14.347,-5.834015c-3.074997,1.822998 -6.591999,2.912018 -11.009998,2.498016l-2.002003,3.335999l-16.014999,0.666992c-0.944,4.338013 -1.814999,8.674988 -1.000999,13.013c3.854,-0.355988 7.606998,0.209015 11.667,-1.992004c5.472,1.401001 10.667,0.175995 15.690002,-2.679993l27.675995,0.330994c10.401001,5.949005 23.374001,6.562012 35.384003,7.343994c0.565994,-6.268982 4.069,-12.502991 -9.585999,-22.020996c2.096001,-2.697998 1.311996,-8.904999 -0.522003,-13.389008c-1.037994,-2.53598 0.952003,-3.333984 0.009003,-6.040985c-1.296997,-0.722992 -2.860001,-2.77301 -5.045998,-4.834991c-2.444,-2.308014 -7.406006,-8.937012 -7.406006,-8.937012c-2.903999,-8.713013 -6.649994,-12.277008 -6.649994,-12.277008c-8.915001,1.459015 -14.421005,-8.575989 -14.421005,-8.575989c-7.610001,-2.056 -11.589996,-0.541992 -14.902,-0.368011c-8.647999,0.453003 -10.407997,1.52002 -17.976997,0.230011z"/>
   <path fill="#cccccc" stroke="#000000" stroke-linecap="round" id="Sierra_Leone" d="m119.884102,514.762878l-13.127998,-6.666992c-1.460007,-4.063019 -5.507004,-6.278992 -9.636002,-8.437012c0.389,-5.73999 -3.418999,-7.04599 -5.964005,-9.121002l-0.865997,-13.701996c5.756996,2.23999 10.852997,-3.567993 15.867996,-10.042999c-1.248993,-5.044983 10.182007,-4.527985 17.814003,-4.381012c7.603004,6.619019 15.562996,12.966003 10.659996,29.059021c3.251999,-1.226013 6.320999,-2.63501 9.929001,-3.505005l-9.052994,8.470001l0.291992,4.817993l-15.915993,13.509003z"/>
   <path fill="#cccccc" stroke="#000000" stroke-linecap="round" id="Simbabwe" d="m731.630127,938.93988l5.062012,10.252991c1.661987,1.932007 3.828979,3.733032 3.679016,6.872986c3.949951,6.754028 8.876953,11.554993 13.382996,17.197021c3.455994,1.083008 6.513,2.645996 8.612976,5.422974c2.121033,2.559998 4.533997,5.140015 8.791992,5.798035c-1.796997,10.422974 2.880005,19.399048 7.776001,21.268005c5.799988,0.264038 11.286011,1.344055 15.444031,5.309021c11.797974,1.406982 13.177002,3.046021 15.968994,4.653015c9.664001,-3.231018 14.169006,2.162964 19.664001,5.882019c1.315002,-7.878052 5.955994,-12.288025 11.209961,-16.442017c4.14801,-6.042053 7.953003,-15.502075 11.916016,-23.396057c2.937988,-4.893982 0.570007,-10.065979 -0.140015,-15.153015l0.778992,-6.487976c7.140015,-17.903992 4.949036,-28.59198 3.790039,-41.189026l-28.988037,-11.187988l-12.179993,-0.867981l0.403015,-4.127014c-10.325989,-3.346985 -18.729004,1.163025 -26.429993,5.411011l-0.348999,9.507996c-23.713013,10.578003 -24.973999,16.328003 -31.502014,22.978027l-3.536987,1.096985l-2.882996,-2.551025l-20.471008,-0.247986z"/>
   <path fill="#cccccc" stroke="#000000" stroke-linecap="round" id="Somalia" d="m1037.437134,436.58786l-5.874023,9.156006c-5.707031,8.230988 9.947021,20.812988 22.823975,32.830994l49.755005,15.962006l16.039063,-0.667999l-48.323975,55.292023l-19.5271,-0.387024c-6.209961,3.486023 -12.278931,7.055969 -16.727905,11.598999c-5.080078,3.163025 -10.762085,5.124023 -16.162048,7.64801c-3.348022,7.313965 -8.925964,13.291992 -13.955017,19.597961l0.155029,64.165039l9.786011,12.310974l22.514038,-25.213989l37.731934,-35.61499l4.339966,-0.520996l15.812012,-14.957031l0.645996,-2.992981c8.677979,-6.59198 19.484009,-17.653015 22.176025,-23.116028c4.770996,-9.66095 10.916992,-17.846985 17.770996,-25.687988l14.857056,-42.905975c2.890015,-2.786011 5.055908,-6.537018 6.873901,-10.753998c0.751099,-4.5 3.442017,-6.091003 5.509033,-8.618011l1.692017,-21.485992c4.812988,0.675995 2.492065,-8.843018 2.764038,-14.656006c-1.859009,-1.65799 -3.932007,-4.391998 -0.044067,-6.587006l-0.034912,-5.355011c-3.494995,0.291016 -7.014038,-3.701996 -10.449097,-1.005981c-4.300903,4.046997 -10.037964,6.941986 -16.580933,7.481995c-7.275024,0.60199 -13.205078,4.811005 -16.254028,3.778015c-4.929932,4.088989 -11.210938,5.475983 -19.364014,3.116974c-5.442017,4.84201 -9.01001,11.131012 -26.486938,6.688019l-11.140015,7.964996c-17.188965,4.660004 -21.667969,-9.253998 -30.322021,-17.065002z"/>
   <path fill="#cccccc" stroke="#000000" stroke-linecap="round" d="m887.21875,477.4375l-0.03125,0l-7.71875,2.84375l0,-11.78125l-4.46875,-8.5l-7.46875,-2.84375l-6.03125,-33.53125l-6.5,-2.625l0,5.6875l-11.4375,0l5.9375,4.4375l1,13.875l-17.15625,22l-16.15625,-10.625l-10.6875,3.9375l0,5.6875l-9.34375,3l-0.15625,-5.84375l-20.4375,-0.65625l0,7.375l-19.5625,0l-6.5,0.625l-4.5,-8.625l-5.5,0l-8,0l-14.53125,28.4375l-0.03125,0.28125c0.164246,0.072021 0.374084,0.073944 0.53125,0.15625c2.096008,2.934998 2.970276,6.519257 12.65625,5.40625l5.59375,5.125c-1.208984,8.48999 11.365723,13.16925 18.71875,19.28125l6.84375,13.5c5.888977,2.861023 12.967773,4.088745 13.84375,13.96875c3.921021,2.228027 5.462769,5.492004 8.34375,8.375c1.323975,1.325012 0.091248,2.593018 1.40625,3.625c3.729004,2.927979 10.452026,3.64447 11.375,-0.5625c0,0 6.221741,2.35553 10.71875,1.8125c2.791992,-0.336975 2.535522,-2.972473 5.3125,-3.5625l20,17.5l3.5625,-2.59375c13.728027,3.184998 27.46051,1.357971 41.1875,-0.625l16.375,-14.03125l22.65625,-0.8125l0.21875,-11.78125l-11.65625,-4.03125l-8.0625,-17.84375l-11.6875,-9.875c2.04303,-3.145996 -3.536011,-6.291504 -6.25,-9.4375c-3.677979,1 -7.669006,0.196259 -11.875,-1.96875l3,-3.84375l-0.0625,-5.53125l10.71875,-0.1875c2.083984,-1.311005 4.34552,-1.880249 5.9375,-5.15625l-0.125,-10.0625z" id="path3246"/>
   <path fill="#cccccc" stroke="#000000" stroke-linecap="round" d="m917.419006,258.597595l-44.914001,0.487976l-0.875,4.278015l-8.531006,0.968994l-4.062988,-4.25l-132.093018,4l1.593018,33.093994c-5.616028,0.425018 -11.406006,0.442017 -15.968018,-0.187988l0.25,10.531006l1.531006,62.593994l-17.906006,0.968994l0.218018,6.687012l-10.25,12.968994l0.656982,9.218994l-3.437988,1.562012c-0.328003,5.756989 -0.987,10.798981 -3.406006,12.375l0.125,7.468994l7.468994,-1.563019c1.502014,8.38501 1.869995,17.19101 8.906006,23.563019l0.906006,5.593994l-3.343994,0.468994c5.640991,7.02002 12.151001,13.598999 15.843994,21.593018c-6.27002,19.419983 2.645996,16.686981 8.062988,19.062988l0.031006,-0.282013l14.531006,-28.436981l8,0l5.5,0l4.5,8.625l6.5,-0.625l19.562988,0l0,-7.375l20.437012,0.656006l0.156006,5.843994l9.343994,-3l0,-5.688019l10.687988,-3.936981l16.156006,10.625l17.156006,-22l-1,-13.875l-5.937012,-4.437012l11.437012,0l0,-5.687988l6.5,2.625l6.031006,33.531006l7.468994,2.843994l4.468994,8.5l0,11.781006l7.718994,-2.843018l0.031006,0l-0.25,-20.406982l5.031006,-7.469025l5.093994,0.063019l2.5,-12.906006c6.033997,-7.424988 8.403992,-16.945984 18.093994,-22.281006l3.062012,-24.406982c-1.763,-17.22702 3.471985,-32.098999 5.968994,-47.906006c2.494995,-1.027008 5.346985,0.867004 7.375,-3.906006l11.156006,-5.657013c2.200989,-1.465973 2.947998,-4.899994 3.593994,-8.436981c-1.513,-3.378998 -3.682007,-2.768005 -5.687988,-3.187012c-3.29303,-6.325989 -8.757019,-6.882996 -13.5,-9.343994l-6.625,-40.093994l-5.25,-5.562012l-0.617004,-6.828979z" id="Sudan"/>
   <path fill="#cccccc" stroke="#000000" stroke-linecap="round" id="Suedafrika" d="m586.991089,1119.159912l26.843994,54.015991l0.35199,12.349976c-1.356995,2.971069 -3.58197,3.057983 -6.070984,2.577026c-1.007996,1.416992 -1.953003,3.250977 0.257996,4.631958c3.325989,5.905029 5.733032,13.087036 9.971008,18.147095c3.481018,4.157959 8.645996,6.333008 12.740967,9.920898l10.659058,0.852051c2.19397,-1.541016 0.198975,-3.641968 8.149963,-4.416016l15.613037,-0.100952c4.928955,-1.936035 -0.617004,-6.811035 15.458984,-5.617065c2.640991,0.333984 3.784973,3.232056 7.927002,0.993042c7.463013,-1.203003 14.588989,1.641968 21.859985,2.735962c2.155029,-1.721924 1.353027,-4.650024 13.460022,-2.310913l1.237976,-4.709106l14.189026,0.223022l84.113953,-78.166992c13.340027,-5.536011 16.289001,-21.689941 20.027039,-37.03894l-10.561035,-0.707031c-0.109009,-1.279053 -10.138977,5.895996 -11.41095,6.036987c-5.423035,0.604004 -8.55304,-1.149048 -7.77301,-10.649048c0.580994,-7.080933 8.166992,-12.720947 10.171997,-14.031006c2.674988,-1.747925 5.342957,4.839111 8.005981,3.098999c0,0 -0.940979,-30.121948 -2.067017,-55.319946c-5.664001,-3.445984 -9.725952,-9.367981 -19.815002,-5.973022c-5.296997,-3.957947 -10.593994,-3.552979 -15.889954,-4.78894l-58.190002,46.150024l-2.136047,9.642944c-6.610962,3.494995 -13.222961,3.02002 -19.833984,3.723022c-5.007996,-3.807983 -10.403992,-6.057007 -16.27301,-6.414063l-9.70697,8.49707c-0.90802,4.678955 -3.627991,5.126953 -5.712036,7.060913c-3.302979,1.915039 -5.028992,4.355103 -5.745972,7.13208c-9.781982,2.418945 -16.643982,0.820923 -23.017029,-1.447998c1.229004,-5.719971 4.907043,-9.435059 1.83905,-18.669067l-13.531006,-15.13501l-1.76001,64.99707c-4.093018,1.771973 -8.186035,4.463013 -12.278015,8.391968c-6.822021,-0.583984 -12.490967,-1.531006 -21.953003,0.177002c-1.533997,-7.177002 -8.089966,-19.043945 -19.153992,-5.859985z"/>
   <path fill="#cccccc" stroke="#000000" stroke-linecap="round" id="Swasiland" d="m832.305115,1077.53894l0.757019,14.712036c-4.39801,2.199951 -7.667053,4.400024 -11.413025,6.600952c-4.109985,-0.103027 -6.742004,-1.18103 -7.393005,-4.470947c-1.036987,-5.241089 -0.445984,-8.811035 2.463013,-13.216064c2.114014,-3.203003 5.937012,-7.244995 8.500977,-7.67395c1.319031,-0.221069 3.267029,1.759033 4.403992,3.428955l2.68103,0.619019z"/>
   <path fill="#cccccc" stroke="#000000" stroke-linecap="round" id="Tasania" d="m879.483093,644.11084l-6.065002,9.036011l-46.021973,0.782959l7.542969,15.499023c-11.880981,11.988037 -4.325012,14.259033 -1.5,18.893982c-5.210999,9.704041 -9.219971,21.55603 -19.643982,21.952026c-2.619995,0.658997 -4.539001,0.002991 -5.028992,3.223999c-1.14801,7.538025 2.156982,23.151001 5.186951,32.171021c3.106018,6.961975 8.596008,11.672974 11.575012,17.503967c2.744995,4.044983 3.41803,8.090027 4.716003,12.13501l6.382019,7.198975c2.692993,-0.799988 5.692993,-0.074951 9.940002,6.894043l19.153992,6.322998c4.130005,3.828003 10.656006,4.859009 17.06897,6.023987l10.041016,33.133972l18.765015,0.479004c3.244019,-2.040955 6.487,-1.867004 9.731995,2.350037c6.984985,-1.101013 13.22699,-2.945007 22.413025,-1.845032c2.904968,-3.117004 6.516968,-5.440002 12.53595,-5.055969c7.209045,5.747009 27.77002,-5.937988 36.626038,-11.658997c-2.158997,-3.895996 -6.096985,-6.015015 -9.752991,-8.414001c0.294983,-4.429993 -1.493042,-9.276001 -3.091003,-14.085022c-1.863037,-2.937988 -3.301025,-5.77002 -2.069031,-7.934998l-4.352966,-9.512024l2.730957,-0.890991c-0.709961,-7.252991 -0.66095,-14.097961 3.663025,-18.639954c-2.968994,-6.142029 -13.075012,-11.014038 -12.494995,-18.300049l8.632019,-24.303955l-22.905029,-15.171021l-3.794006,-13.515991l-69.984985,-44.27301z"/>
   <path fill="#cccccc" stroke="#000000" stroke-linecap="round" id="Togo" d="m331.881104,534.464844l11.917999,-3.437988l-7.90799,-61.995026c-1.01001,-4.725983 -5.70401,-6.819977 -9.287018,-9.708984l1.899017,-10.131989l-14.053009,-1.819c-2.631012,5.256989 -1.229004,10.260986 5.145996,14.954987c5.149994,21.002014 4.51001,41.177002 6.123993,61.673035l6.161011,10.464966z"/>
   <path fill="#cccccc" stroke="#000000" stroke-linecap="round" id="Tunesien" d="m495.520111,10.18686c-3.015991,0.103 -14.837006,-6.059 -21.477997,3.602c0,0 -5,2.215 -5.281006,7.344c-0.434998,7.900999 -1.187988,32.499998 -1.187988,32.499998c-0.831024,-1.328999 -6.753021,-0.324997 -7.688019,3.688004c-1.270996,5.453999 -7.419006,4.025997 -7.906006,6.780998c-0.980988,5.546997 3.862,10.650002 9.563019,15.625c1.460999,1.276001 -0.541992,8.334 0.906006,9.625c4.414978,3.939003 12.25,6.625 12.25,6.625c1.816986,18.072998 5.030975,30.563004 5.030975,30.563004c1.19101,0.744995 13.819,-3.591003 9.465027,-21.346001c-0.503998,-2.056 25.882965,-10.603004 21.145996,-27.118004c-0.492004,-1.717003 -4.787994,0.316002 -5.485016,-2.799995c-1.565002,-6.991005 -1.363983,-8.713005 -4.020996,-9.763c-1.334991,-0.527 -6.856995,4.774994 -7.979004,4.098c-2.503998,-1.513 -5.627991,-5.035004 -4.276001,-6.779003c2.32901,-3.005001 19.157013,-13.436001 19.325012,-19.187c0.251007,-8.558998 -2.90799,-9.383999 -7.105011,-11.663c-2.384003,-1.293999 -1.526978,-5.348999 -0.755981,-7.661999c0.472992,-1.418001 9.557983,-4.51 8.509979,-7.796c-0.710999,-2.229001 -2.028992,-2.571001 -2.511993,-4.314001c-0.355988,-1.286 -7.221008,5.885 -7.653992,4.777c-1.14502,-2.921 -1.489014,-4.709001 -2.867004,-6.8z"/>
   <path fill="#cccccc" stroke="#000000" stroke-linecap="round" id="Tschad" d="m712.360107,307.755859l-130.179016,-64.108994l-17.242981,5.210999c1.179993,10.184982 0.312012,18.069992 0.494995,24.304001c0.268005,9.139984 6.627991,15.548004 15.348022,18.638l-3.860046,9.393982l-5.547974,50.300018l-27.169006,29.89798c-0.862,1.696014 -1.34198,3.393005 -1.23999,5.08902c-0.859985,1.945007 -1.965027,2.792999 -3.143982,3.302002c-1.897034,1.177979 -0.960999,3.169006 -1.18103,4.64798c-1.580017,10.598022 20.577026,26.294006 20.577026,26.294006c1.140991,4.787994 2.828003,9.041016 3.674011,14.095001c0.911987,5.449005 -1.756042,12.024994 -0.988037,16.747009c1.11499,6.854004 8.721008,7.541992 7.68103,18.005005l-17.444031,-1.605011c-5.062988,10.106995 -1.52002,16.692993 10.913025,19.644012l8.211975,24.514984c13.192017,-3.010986 22.481995,-1.408997 39.71698,-9.196991l15.679993,-1.553009c2.892029,-4.932983 9.013,-7.55899 6.914001,-16.054993l21.697021,-2.368988c1.696045,-1.580017 2.51001,-4.042023 5.265015,-4.563019c4.252991,-0.131989 5.497009,-2.895996 6.63501,-5.752991c1.981995,-4.696991 6.979004,-6.380005 10.734009,-9.306c0.677002,-15.492004 12.386963,-11.057007 19.52301,-13.988007l-0.854004,-5.376007c-4.084045,-4.453003 -7.606018,-9.506989 -8.884033,-23.677002l-7.612976,1.431l-0.16803,-6.886993c2.330994,-2.5 4.005005,-8.431 3.40802,-12.645996l3.544983,-1.662994l-0.872986,-8.95401l10.47998,-13.395996l-0.325012,-6.562988l18.064026,-0.950012l-1.848999,-62.904999z"/>
   <path fill="#cccccc" stroke="#000000" stroke-linecap="round" id="Uganda" d="m833.6651,575.048889l3.304016,-2.504028c13.281982,3.388 27.125,1.448059 40.96698,-0.47998l8.291016,-6.857971c4.70697,2.771973 8.229004,7.526978 8.934998,17.44696l7.976013,6.377991l0,19.369019l-29.683044,44.682983l-46.276001,0.855042l-7.08197,5.737976l-2.763977,0.054016l-1.591003,-2.127991l1.061951,-27.608032l10.372009,-15.740967l16.54303,-14.840027l-10.001038,-6.322998l-0.057007,-18.041992l0.004028,0z"/>
   <path fill="#cccccc" stroke="#000000" stroke-linecap="round" id="Westsahara" d="m116.532097,262.885864c2.054001,-14.697006 -7.083,-35.352005 21.465004,-35.94101l5.990005,-44.427002l50.916,4.492004l3.869995,-29.992004l-68.104004,-5.029999c-6.32,9.701004 -9.988998,17.914001 -19.529999,21.698013c-9.003998,3.570999 -12.526001,14.682999 -15.072998,24.306992l-26.800003,30.666c-0.964996,6.962997 -5.012001,11.615005 -10.426998,15.240005c-4.896,6.404999 -7.887001,14.363007 -8.639,21.438995l6.828999,-6.19101l59.502998,3.739014z"/>
   <path fill="#cccccc" stroke="#000000" stroke-linecap="round" id="Zentralafrikanische_Republik" d="m571.363098,511.994873l-15.382019,25.231995l2.063049,18.345032c6.572998,12.91095 14.234985,24.840942 24.451965,34.472961c6.340027,-7.057007 9.127991,-12.497986 21.686035,-15.748962l10.925964,4.75l12.254028,-3.449036c3.036987,-3.526978 2.790955,-9.107971 3.028992,-14.386963c4.210999,-6.869019 8.747986,-10.479004 13.31897,-13.749023c3.388,2.620972 9.387024,0.601013 9.838989,8.438965c4.014038,4.516052 7.800049,7.208008 10.725037,3.018005c3.391968,5.015015 17.807007,3.414001 27.724976,4.513c0.572021,-1.860962 1.624023,-4.320007 3.653992,-8.003967c3.321045,-0.504028 6.307007,-1.811035 11.373047,1.875977l20.945984,-7.328003l1.364014,3.092041l8.377991,-1.346008l-0.145996,-3.119995l18.506958,-1.537048l4.121033,5.291016l1.908997,-2.860962l3.161011,2.306946l2.664001,-3.060974l8.625,-0.336975c-1.764038,-4.888 -1.012024,-10.684021 -14.083008,-13.765015l-6.721008,-13.729004c-6.737976,-6.450012 -18.680969,-9.431 -19.552002,-19.792999l-5.164978,-4.98999c-4.377014,0.203979 -8.187988,2.100983 -13.065002,-5.813019c-7.882019,-1.197998 -13.231018,-2.432983 -8.054016,-18.395996c-4.049011,-9.773987 -10.234985,-14.402008 -15.604004,-21.867004c-11.299988,2.161011 -15.835999,1.584015 -16.234009,13.266998c-3.588989,2.858002 -8.859985,4.315002 -10.5,8.799011c-1.421997,3.312988 -2.596985,5.86499 -7.623962,6.294006c-1.434021,0.884979 -3.173035,2.685974 -4.968018,4.654999l-21.414001,2.233002c1.122009,4.027985 0.687988,7.658997 -3.921021,12.154999c-1.229004,1.200989 -2.112,2.671997 -3.260986,3.963989l-15.419983,1.434998c-17.825989,7.86499 -26.77301,6.195007 -39.606018,9.143005z"/>
   <path fill="#cccccc" stroke="#000000" stroke-linecap="round" id="Lesotho" d="m778.101074,1147.398926c-1.207031,0.114014 -3.312988,0.468018 -4.825012,1.072021c-1.112976,0.444946 -2.119019,0.912964 -2.948975,1.743042c-0.674011,0.67395 -0.854004,1.672974 -1.072021,2.546997c-0.229004,0.91394 -2.08197,2.095947 -2.815002,2.278931c-1.026978,0.256958 -2.412964,0 -3.484985,0c-2.14502,0 -3.166016,-0.468994 -4.424011,-2.145996c-1.533997,-2.046021 -3.460022,-3.621948 -4.825012,-5.896973c-0.96698,-1.609985 -1.847961,-2.593018 -2.412964,-4.290039c-0.425049,-1.272949 -0.269043,-2.687988 -0.269043,-4.020996c0,-1.713989 0.789001,-3.276001 2.278992,-4.020996c0.179016,-0.089966 0.357056,-0.178955 0.536011,-0.269043c1.752014,-0.875977 2.188049,-2.856934 3.485046,-4.154907c1.428955,-1.429077 3.280945,-2.697021 4.825989,-4.020996c0.981018,-0.842041 2.382996,-1.593994 3.484009,-2.14502c1.692993,-0.847046 3.307983,-1.296021 5.094971,-1.743042c1.341003,-0.334961 2.903015,-0.792969 4.020996,-1.072021c0.221008,-0.054932 0.445984,-0.088989 0.669983,-0.133911c0.223999,-0.045044 0.447021,-0.090088 0.670044,-0.134033c1.579956,-0.31604 3.57196,0.473022 4.424011,1.608032c1.166992,1.555908 2.627991,3.057007 3.753967,4.557983c0.588013,0.784912 0.552979,2.713989 1.072021,3.75293c0.740967,1.484009 1.622009,2.588013 2.144958,4.156006c0.535034,1.60498 -0.234985,3.286011 -0.937988,4.69104c-0.835999,1.672974 -1.96698,2.637939 -3.21698,3.887939c-1.02301,1.023071 -2.116028,1.854004 -3.218018,2.68103c-0.580994,0.436035 -1.36499,0.685059 -2.010986,1.072021z"/>
  </g>
 </g>
</svg>